<?xml version="1.0" encoding="UTF-8"?>
<svg xmlns="http://www.w3.org/2000/svg" width="960" height="521" viewBox="0 0 960 521">
  <!-- Created using SVG Map Generator: dojo.amcharts.com/svg-map-generator -->
  <style>
    .land { fill: #ffffff; stroke: #000000; stroke-width: 0.5; }
  </style>
  <g id="polygons">
    <path d="M-469.42,-8410.23L-462.93,-8326.97L-496.44,-8259.31L-528.37,-8142.12L-681.74,-8043.84L-787.07,-7945.18L-698.75,-7869.32L-714.61,-7765.97L-749.6,-7687.97L-656.4,-7547.76L-435.76,-7306.34L-591.59,-7022.6L-758.85,-6935.24L-893.66,-6887.46L-956.51,-6877.71L-1000.66,-6799.5L-1038.4,-6640.76L-1168.37,-7787.62L-1177.4,-7902.67L-1102.58,-7963.31L-1057.51,-8013.03L-962.54,-8089.47L-924.29,-8154.99L-887.28,-8122.04L-872.21,-8126.91L-828.49,-8169.61L-792.67,-8216.8L-806.48,-8223.24L-793.05,-8261.65L-756.84,-8254.63L-667.78,-8331.65L-649.77,-8357.59L-612.29,-8390.73L-598.92,-8420.37L-554.56,-8434.99L-537.31,-8462.1L-541.8,-8480.62L-501.98,-8497.78L-501.27,-8464.24Z" class="land" id="EG-ALX" title="Al Iskandariyah"/>
    <path d="M3213.27,9668.07L3024.97,9667.68L3023.59,9629.71L3054.36,9525.33L3097.88,9439.46L3133.8,9399.53L3168.75,9331.38L3140.72,9299.05L3116.12,9256.4L3091.5,9249.58L3061.07,9280.55L2928.31,9374.41L2909.56,9372.66L2875.66,9369.16L2778.87,9379.87L2718.31,9289.9L2739.98,9179.09L2891.43,9089.31L2998.61,9052.31L3144.23,9057.18L3244.96,8947.33L3309.18,8860.08L3335.53,8796.79L3348.94,8733.3L3336.32,8669.02L3325.41,8494.51L3311.64,8405.31L3337.56,8331.29L3386.28,8261.56L3427.58,8241.3L3528.29,8240.53L3603.37,8249.88L3661.4,8240.72L3741.28,8211.11L4048.88,8113.53L4244.43,8048.47L4280.88,8063.86L4375.44,8073.99L4470.55,8094.83L4544.16,8143.52L4600.49,8170.4L4657.45,8133.2L4710.43,7999.97L4739.63,7919.13L4778.48,7831.67L4800.63,7736.41L4838.24,7624.01L4892.41,7515.7L4934.36,7424.73L4981.28,7294.79L5035.85,7193.68L5080.91,7099.39L5089,7060.62L5066.25,6981.33L4991.38,6985.81L4930,7001.4L4831.67,6987.17L4640.43,6937.88L4585.36,6872.03L4589.53,6740.52L4634.93,6503.6L4680.53,6423.33L4734.25,6382.61L4813.74,6328.44L4890.7,6292L4961.64,6269.6L5034.05,6201.01L5018.78,6150.74L4961.14,6102.42L4879.18,6021.16L4864.01,5896.06L4910.74,5840.72L4955.76,5821.04L5019.59,5784.22L5144.13,5628.52L5139.76,5372.07L5131.44,5254.17L5140.71,5087.35L5131.52,4951.51L5148.65,4813.34L5162.3,4674.96L5153.93,4560.56L5164.77,4429.2L5089.42,4291.01L5062.73,4204.47L5010.24,4063.55L5001.45,3977.79L4994.8,3874.87L4975.56,3801.78L4911.5,3722.25L4807.29,3622.64L4676.53,3558.9L4700.93,3420.11L4687.96,3279.18L4762.08,3347.6L4852.83,3406.08L4924.29,3475.86L5090.08,3595.16L5225.54,3812.5L5252.1,3944.46L5285.59,4323.75L5367.89,4503.06L5493.68,4705.56L5506.5,4767.34L5503.84,4926.57L5395.87,5032L5332.37,5150.1L5334.46,5244.23L5307.55,5385.51L5324.78,5625.4L5358.4,5699.25L5378.78,5818.12L5415.24,5863.52L5463.81,5948.48L5476.22,6022.14L5492.14,6078.84L5532.69,6149.77L5594.44,6186.59L5651.2,6251.67L5671.17,6432.49L5711.28,6448.85L5710.61,6522.5L5686.75,6551.53L5668.18,6591.09L5660.02,6678.96L5669.02,6772.47L5714.09,6908.46L5772.17,6922.88L5807.52,6999.45L5839.8,7057.7L5835.14,7112.44L5809.76,7157.84L5792.22,7245.7L5759.9,7327.71L5707.47,7392.98L5670.89,7446.74L5631.35,7528.95L5587.92,7585.64L5588.77,7633.75L5626.69,7667.84L5723.72,7766.8L5834.25,7776.74L5874,7816.08L6001.08,7910.17L6091.74,8051.59L6108.66,8184.62L6070.93,8266.04L5971.21,8250.07L5862.91,8131.84L5804.77,8054.9L5701.45,8072.23L5606.11,8041.07L5536.28,7993.73L5436.27,7920.1L5322.39,7933.16L5218.11,7998.99L5242.56,8221.44L5208.81,8358.76L5131.62,8462.57L5036.73,8526.65L4907.98,8625.2L4801.08,8736.02L4603.33,8802.83L4474.34,8741.87L4383.03,8649.94L4324.77,8573.59L4244.47,8519.83L4146.22,8546.32L4115.09,8725.31L4107.05,8820.35L4071.73,8936.23L4038.77,9015.5L3992.76,9085.41L3897.04,9132.35L3739.83,9105.08L3695.62,9231.86L3629.21,9311.12L3532.83,9369.16L3244.5,9480.16Z" class="land" id="EG-ASN" title="Aswan"/>
    <path d="M2713.15,269.64L2633.24,269.05L2597.27,196.9L2556.8,158.68L2519.01,81.85L2484.5,37L2419.93,29.59L2402.51,71.9L2366.29,136.64L2337.18,161.6L2278.13,198.85L2238.21,236.88L2215.53,244.68L2123.92,100.18L2044.97,-66.74L1969.08,-210.66L1898.95,-319.67L1797.69,-379.93L1737.25,-394.94L1658.99,-404.3L1621.7,-424.97L1540.33,-497.91L1387.02,-647.29L1334.8,-677.51L1289.34,-741.48L1264.22,-824.36L1208.81,-895.93L1168.47,-975.11L1144.85,-1073.79L1106.51,-1091.73L1094.36,-1167.2L1063.96,-1197.23L1060.29,-1284.02L1097.43,-1287.72L1206.48,-1287.72L1273.46,-1268.81L1361.91,-1253.79L1413.78,-1306.45L1514.22,-1299.03L1500.27,-1167.98L1535.48,-985.64L1561.96,-925.38L1620.34,-857.51L1655.32,-839.57L1781.11,-793.55L1834.23,-752.01L1978.82,-692.92L2020.46,-689.02L2149.28,-619.2L2211.89,-447.98L2320.59,-363.15L2419.25,-278.72L2468.19,-243.61L2527.77,-123.88L2621.77,22.96L2687.2,172.52Z" class="land" id="EG-AST" title="Asyut"/>
    <path d="M6093.39,-1358.32L6120.15,-1333.94L6128.38,-1293.96L6112.64,-1268.42L6087.48,-1294.94L6070.78,-1333.94ZM6327.81,-1109.67L6378.94,-1104.21L6410.74,-1071.84L6436.79,-1061.5L6485.85,-1027.37L6517.75,-948.19L6495.27,-942.93L6471.92,-974.72L6411.19,-1024.64L6396.48,-1023.08L6354.06,-1047.46L6332.07,-1044.14L6309.25,-1069.69ZM5747.53,-1594.5L5764.05,-1584.16L5762.22,-1558.22L5729.3,-1567.97ZM6047.74,-1284.21L6068.27,-1264.71L6068.09,-1228.83L6114.64,-1191.58L6094.69,-1162.33L6054.87,-1156.28L6062.22,-1181.83L6012.84,-1202.89L6037.08,-1282.46ZM6517.66,371.81L6557.99,402.04L6555.66,434.6L6571.9,462.88L6572.79,495.25L6529.96,450.4L6501.04,397.75ZM6336.01,-582.15L6372.25,-550.56L6374.79,-520.33L6391.9,-499.27L6401.39,-461.24L6370.61,-470.02L6359.14,-493.23L6315.57,-537.1L6337.17,-541.39ZM2799.41,-3917.34L2845.1,-3837.18L3026.59,-3874.62L3263.31,-3878.53L3534.47,-4066.93L3683.41,-4111.6L3816.41,-4200.73L4007.91,-4207.94L4027.76,-4179.27L4024.88,-4125.64L3981.8,-4083.31L3969.51,-4054.64L3986.08,-4017.39L3977.52,-4003.15L3975.27,-3941.91L3999.24,-3897.05L4052.92,-3839.52L4089.89,-3757.8L4088.89,-3737.71L4106.93,-3705.72L4136.62,-3676.47L4168.16,-3657.55L4190.35,-3607.23L4225.99,-3572.51L4273.78,-3562.76L4300.17,-3542.09L4329.86,-3486.89L4345.96,-3445.74L4358.43,-3435.4L4357.34,-3395.81L4388.46,-3335.15L4387.77,-3307.65L4407.54,-3285.42L4428.43,-3220.28L4445.6,-3123.34L4499.46,-3099.55L4536.7,-3093.11L4563.38,-3069.12L4581.47,-3034.6L4600.41,-3018.22L4626.72,-2976.09L4665.94,-2967.32L4674.09,-2939.82L4711.21,-2914.27L4742.81,-2853.61L4765.8,-2793.93L4815.5,-2730.54L4863.65,-2711.63L4880.09,-2628.74L4901.13,-2608.65L4902.96,-2581.54L4959.76,-2538.83L4971.24,-2494.94L5004.78,-2462.37L5012.56,-2439.16L5050.8,-2415.76L5115.28,-2337.94L5121.66,-2289.58L5159.76,-2288.6L5215.32,-2224.63L5277.11,-2176.46L5277.82,-2141.74L5292.03,-2113.07L5332.48,-2105.47L5354.18,-2070.17L5400.58,-2077.77L5430.51,-2051.83L5450.22,-2047.54L5484.68,-2010.1L5531.28,-1989.03L5605.62,-1879.04L5623.85,-1859.93L5642.03,-1818.77L5665.76,-1803.17L5674.74,-1760.27L5699.51,-1723.02L5719.21,-1713.27L5718.29,-1644.42L5733.1,-1612.44L5696.37,-1621.6L5680.88,-1652.03L5654.33,-1643.84L5603.5,-1682.26L5550.1,-1688.3L5538.53,-1645.98L5556.37,-1620.04L5572.65,-1618.29L5613.39,-1556.08L5629.08,-1523.12L5657.86,-1527.99L5682.36,-1549.05L5693.3,-1532.28L5665.84,-1437.5L5679.32,-1432.63L5688.29,-1395.18L5659.66,-1394.21L5615.55,-1349.16L5617.81,-1312.88L5675.59,-1264.71L5717.68,-1201.72L5727.65,-1140.68L5721.94,-1118.45L5730.23,-1083.15L5784.06,-1072.42L5806.19,-1033.81L5835.55,-1026.2L5852.8,-968.87L5867.56,-942.93L5901.89,-918.55L5907.82,-901.78L5939.02,-876.23L5962.1,-820.46L5956.34,-789.06L5961.87,-753.76L5978.69,-745.77L5982.13,-710.47L6001.88,-700.13L6030.17,-661.13L6079.61,-649.24L6131.64,-596.78L6174.9,-571.82L6216.22,-566.36L6245.82,-534.96L6235.23,-505.12L6239.41,-476.46L6256.43,-450.52L6237.92,-440.18L6222.84,-406.06L6236.78,-298.8L6233.4,-275.4L6278.87,-229.96L6325.27,-215.92L6363.86,-163.86L6335.88,-142.8L6336.21,-123.3L6382.81,-58.36L6377.03,-36.52L6401.81,-24.23L6439.02,71.71L6472.9,102.13L6496.56,153.61L6507.37,137.81L6537.96,132.35L6527.74,167.06L6555.68,239.02L6529.8,240.78L6504.68,208.8L6487.71,214.65L6477.04,259.69L6462.22,281.92L6476.5,313.9L6459.24,343.73L6472.84,395.02L6485.64,407.11L6481.61,462.29L6470.6,481.79L6479.9,524.11L6470.24,564.08L6497.8,616.14L6540.73,630.77L6581.15,656.12L6595.5,683.22L6623.61,698.43L6625.34,725.53L6657.72,779.16L6655.56,792.22L6686.34,832.19L6692.12,853.45L6722.61,887.96L6726.23,918.38L6744.1,956.79L6746.84,984.48L6775.04,1026.6L6799.84,1094.45L6827.83,1112.19L6846.45,1153.92L6904.73,1221.58L6933.86,1261.16L6944.33,1290.41L6946.11,1338.18L6974.23,1375.42L6993.4,1422.02L7005,1477.2L7045.13,1534.71L7055.94,1572.15L7095.45,1609.98L7100.45,1633.76L7137.66,1671.2L7129.34,1696.54L7158.42,1715.65L7185.1,1761.08L7192.99,1798.51L7243.51,1910.62L7261.23,1935.38L7303.67,1959.36L7317.43,1991.34L7339.74,2010.83L7371.6,2076.34L7375.93,2118.06L7392.76,2137.95L7404,2182.98L7433.65,2211.06L7474.85,2223.54L7505.31,2283.78L7537.64,2327.06L7561.52,2337.78L7601.6,2378.53L7632.1,2465.67L7649.56,2471.13L7649.07,2509.54L7658.19,2532.35L7682.53,2544.63L7683.32,2570.75L7699.07,2615.59L7719.55,2646.59L7760.42,2678.95L7784.59,2711.51L7802.94,2805.28L7820.52,2850.7L7841.53,2859.86L7863.7,2889.69L7868.97,2933.55L7891.8,2959.48L7902.99,3026.73L7922.86,3060.26L7973.34,3117.57L8002.71,3197.3L7999.47,3219.92L8058.64,3294.77L8096.47,3356.37L8096.23,3375.86L8144.22,3459.29L8184.03,3494.57L8205.66,3546.43L8240.17,3599.06L8255.3,3659.09L8285.14,3689.5L8319.5,3758.7L8323.61,3782.09L8351.81,3820.49L8374.01,3838.42L8381.52,3871.95L8365.78,3911.51L8378.96,3942.9L8422.31,3981.88L8444.76,4027.88L8459.42,4040.74L8464.53,4101.95L8477.97,4111.69L8484.15,4178.35L8520.29,4220.65L8539.42,4232.54L8608.88,4318.69L8617.01,4318.69L8652.91,4397.62L8644.99,4458.82L8660.15,4484.35L8688.4,4488.06L8682.82,4550.23L8743.45,4604.41L8763.55,4658.01L8795.35,4678.08L8803.11,4696.4L8771.72,4711.02L8778.84,4739.86L8759.86,4763.64L8760.14,4784.1L8820.99,4847.44L8859.78,4863.23L8914.73,4978.6L8956.14,5021.87L8979.48,5027.13L8989.72,5054.41L9043.91,5088.32L9080.19,5084.04L9093.26,5131.2L9122.11,5159.26L9159.34,5177.78L9170.91,5211.88L9210.05,5255.14L9253.91,5319.65L9258.75,5348.68L9286.15,5381.23L9276.59,5402.86L9316.65,5466.78L9398.07,5537.13L9399.8,5572.4L9431.67,5573.96L9431.7,5540.44L9458.27,5562.07L9483.22,5562.65L9534.35,5598.9L9560.83,5632.03L9582.81,5687.17L9584.52,5745.63L9637.82,5780.32L9659.92,5784.02L9699.49,5775.45L9763.82,5794.74L9807.09,5817.54L9853.96,5855.34L9872.3,5888.47L9860.16,5912.82L9832.19,5906.98L9800.88,5919.25L9755.02,5962.71L9680.83,5933.87L9669.06,5922.57L9616.42,5930.75L9581.55,5919.84L9552.45,5882.04L9504.41,5845.79L9461.72,5830.59L9435.13,5832.15L9420.92,5912.82L9408.96,5929L9417.08,5982.19L9415.49,6038.5L9427.06,6077.28L9415.14,6087.61L9425.51,6140.61L9413.88,6189.32L9435.15,6238.03L9456.89,6208.8L9475.28,6206.27L9485.99,6233.75L9485.47,6263.56L9443.39,6256.54L9469.34,6289.47L9482.22,6345.78L9493.39,6487.63L9476.85,6508.28L9491.9,6582.9L9502.95,6591.09L9500.53,6691.62L9471.44,6758.25L9493.93,6810.66L9526.78,6862.1L9564.25,6903.2L9595.01,7005.49L9610.89,7030.42L9611.93,7123.55L9623.08,7177.12L9651.51,7230.7L9648.17,7258.36L9657.65,7320.51L9689.03,7341.16L9702.87,7384.99L9731.41,7415.77L9750.96,7452.98L9207.12,8067.17L9133.89,8150.15L8742,8024.51L8698.25,8013.21L8351.12,9103.33L7832.01,9209.27L7494.65,9280.16L7400.93,9674.89L6647.82,9671.88L5894.87,9671.38L4872.8,9675.08L4161.66,9676.05L4025.15,9677.22L3893.04,9670.41L3213.27,9668.07L3244.5,9480.16L3532.83,9369.16L3629.21,9311.12L3695.62,9231.86L3739.83,9105.08L3897.04,9132.35L3992.76,9085.41L4038.77,9015.5L4071.73,8936.23L4107.05,8820.35L4115.09,8725.31L4146.22,8546.32L4244.47,8519.83L4324.77,8573.59L4383.03,8649.94L4474.34,8741.87L4603.33,8802.83L4801.08,8736.02L4907.98,8625.2L5036.73,8526.65L5131.62,8462.57L5208.81,8358.76L5242.56,8221.44L5218.11,7998.99L5322.39,7933.16L5436.27,7920.1L5536.28,7993.73L5606.11,8041.07L5701.45,8072.23L5804.77,8054.9L5862.91,8131.84L5971.21,8250.07L6070.93,8266.04L6108.66,8184.62L6091.74,8051.59L6001.08,7910.17L5874,7816.08L5834.25,7776.74L5723.72,7766.8L5626.69,7667.84L5588.77,7633.75L5587.92,7585.64L5631.35,7528.95L5670.89,7446.74L5707.47,7392.98L5759.9,7327.71L5792.22,7245.7L5809.76,7157.84L5835.14,7112.44L5839.8,7057.7L5807.52,6999.45L5772.17,6922.88L5714.09,6908.46L5669.02,6772.47L5660.02,6678.96L5668.18,6591.09L5686.75,6551.53L5710.61,6522.5L5711.28,6448.85L5671.17,6432.49L5651.2,6251.67L5594.44,6186.59L5532.69,6149.77L5492.14,6078.84L5476.22,6022.14L5463.81,5948.48L5415.24,5863.52L5378.78,5818.12L5358.4,5699.25L5324.78,5625.4L5307.55,5385.51L5334.46,5244.23L5332.37,5150.1L5395.87,5032L5503.84,4926.57L5506.5,4767.34L5493.68,4705.56L5367.89,4503.06L5285.59,4323.75L5252.1,3944.46L5225.54,3812.5L5090.08,3595.16L4924.29,3475.86L4852.83,3406.08L4762.08,3347.6L4660.58,3253.83L4597.31,3156.76L4560.79,3057.14L4544.85,2845.43L4568.43,2773.11L4625.1,2700.98L4684.28,2578.94L4881.04,2430.97L4942.58,2307.37L4988.83,2091.55L4992.47,2048.46L4980.48,1906.33L4957.4,1772L4909.01,1674.9L4880.32,1589.5L4821.49,1499.81L4692.38,1410.12L4528.18,1372.69L4309.13,1375.22L4222.59,1407.59L4123.33,1487.34L4053.45,1547.19L4003.92,1577.02L3943.38,1581.7L3870.13,1547.39L3872.02,1483.44L3859.46,1478.17L3777.36,1368.59L3732.16,1267.4L3662.91,1215.34L3514.05,1167.96L3410.62,1100.69L3378.93,1067.54L3331.86,998.52L3277.64,857.74L3253.12,741.33L3192.31,720.66L3153.34,670.74L3132.03,608.54L3051.84,508.7L2827.94,319.55L2732.26,282.5L2713.15,269.64L2687.2,172.52L2621.77,22.96L2527.77,-123.88L2468.19,-243.61L2419.25,-278.72L2320.59,-363.15L2211.89,-447.98L2149.28,-619.2L2020.46,-689.02L1978.82,-692.92L1834.23,-752.01L1781.11,-793.55L1655.32,-839.57L1620.34,-857.51L1561.96,-925.38L1535.48,-985.64L1500.27,-1167.98L1514.22,-1299.03L1517.46,-1428.33L1493.99,-1611.66L1442.94,-1751.69L1407.13,-1977.92L1263.36,-2274.17L1222.62,-2506.06L1211.22,-2592.07L1229.3,-2699.92L1266.95,-2786.13L1337.94,-2921.68L1320.77,-3181.07L1355.19,-3323.26L1366.55,-3385.08L1231.66,-3404.2L1327.31,-3438.13L1338.04,-3578.17L1428.68,-3772.04L1501.55,-3804.41L1543.72,-3885.35L1569.38,-3949.91L1616,-4030.85L1686.88,-4138.51L1711.3,-4165.43L1705.25,-4289.47L1762.89,-4343.3L1757.22,-4515.71L1861.81,-4419.75L1941.65,-4339.4L2068.54,-4158.21L2191.73,-4068.88L2352.68,-4044.7L2518.38,-3977.6L2755.21,-3917.34Z" class="land" id="EG-BA" title="Al Bahr al Ahmar"/>
    <path d="M266.11,-8191.65L395.21,-8204.71L602.73,-8015.96L611.6,-7910.27L670.83,-7865.42L675.06,-7766.95L705.93,-7755.64L714.63,-7657.16L696.09,-7631.81L732.26,-7614.85L752.11,-7572.72L782.72,-7538.99L767.33,-7505.06L740,-7474.25L745.44,-7412.23L769.2,-7403.85L770,-7341.84L762.19,-7299.71L777.9,-7251.74L808.87,-7255.84L814.88,-7081.11L820.67,-7066.09L859.13,-7063.36L848.46,-6995.11L893.25,-6961.95L889.46,-6897.21L915.14,-6839.29L931.83,-6687.76L935.15,-6618.14L886.37,-6612.29L887.35,-6543.64L663.77,-6276.85L570.11,-6263.59L330.45,-5981.77L182.37,-5735.06L160.23,-5685.72L134.72,-5668.75L69.56,-5786.55L6.42,-5826.73L-96.12,-5847.59L-383.28,-6059L-456.29,-6095.08L-699.09,-6285.04L-851.18,-6290.5L-968.58,-6348.62L-1020.43,-6425.26L-1038.4,-6640.76L-1000.66,-6799.5L-956.51,-6877.71L-893.66,-6887.46L-758.85,-6935.24L-591.59,-7022.6L-435.76,-7306.34L-656.4,-7547.76L-749.6,-7687.97L-714.61,-7765.97L-698.75,-7869.32L-787.07,-7945.18L-681.74,-8043.84L-528.37,-8142.12L-496.44,-8259.31L-462.93,-8326.97L-469.42,-8410.23L-411.41,-8391.12L-358.37,-8392.29L-347.12,-8384.1L-260.06,-8413.94L-218.38,-8438.89L-157.66,-8499.53L-125.75,-8548.28L-95.8,-8626.27L-79.57,-8687.89L-61.55,-8779.53L-47.44,-8769.78L-7.38,-8767.63L28.81,-8783.82L102.82,-8751.45L133.58,-8568.95L243.47,-8449.03Z" class="land" id="EG-BH" title="Al Buhayrah"/>
    <path d="M-608.44,-3473.82L-550.48,-3564.52L-545.84,-3684.46L-541.65,-3898.42L-509.29,-4128.76L-405.99,-4112.77L-199.6,-4085.66L188.25,-4010.37L267.1,-3967.27L266.73,-3902.52L303.31,-3887.3L354.3,-3890.81L1138.94,-4130.12L1313.21,-4468.32L1420.61,-4667.65L1514.74,-4745.07L1534.4,-4761.26L1620.01,-4724.4L1702.72,-4704.9L1738.63,-4680.71L1757.22,-4515.71L1762.89,-4343.3L1705.25,-4289.47L1711.3,-4165.43L1686.88,-4138.51L1616,-4030.85L1569.38,-3949.91L1543.72,-3885.35L1501.55,-3804.41L1428.68,-3772.04L1338.04,-3578.17L1327.31,-3438.13L1231.66,-3404.2L1121.81,-3481.23L1030.58,-3535.07L434.3,-3514.8L-161.74,-3492.55L-216.19,-3493.72L-519.24,-3482.6Z" class="land" id="EG-BNS" title="Bani Suwayf"/>
    <path d="M2573.26,-6395.81L2590.6,-6261.83L2648.72,-6101.13L2688.23,-5916.83L2762.32,-5591.91L2775.46,-5427.3L2780.77,-4459.93L2799.41,-3917.34L2755.21,-3917.34L2518.38,-3977.6L2352.68,-4044.7L2191.73,-4068.88L2068.54,-4158.21L1941.65,-4339.4L1861.81,-4419.75L1757.22,-4515.71L1738.63,-4680.71L1702.72,-4704.9L1683.56,-4709.38L1671.3,-4767.11L1672.78,-4823.48L1680.98,-4851.76L1706.69,-4872.24L1714.95,-4897.79L1711.82,-4959.22L1736.76,-5013.05L1728.64,-5159.13L1731.18,-5202.63L1756.62,-5225.84L1754.43,-5300.14L1713.51,-5336.03L1702.49,-5438.42L1745.45,-5444.08L1723.06,-5763.54L1625.74,-5797.47L1613.69,-5866.51L1575.02,-5928.34L1605.21,-5955.25L1580.63,-6172.12L1650,-6164.51L1710.74,-6228.29L1861.64,-6295.38L2021.59,-6306.49L2184.9,-6306.49L2290.81,-6378.26L2500.22,-6543.83L2512.09,-6529.21Z" class="land" id="EG-C" title="al Qahira"/>
    <path d="M1861.21,-8728.05L1867.4,-8660.79L1815,-8630.37L1761.81,-8606.78L1767.07,-8549.26L1853.1,-8550.62L1915.47,-8559.39L1925.86,-8484.33L1961.81,-8476.92L2006.57,-8453.32L2043.83,-8419.4L2040.19,-8326.78L2026.37,-8181.12L2165.26,-8256L2270.39,-8320.93L2330.02,-8335.36L2427.64,-8323.85L2545.01,-8328.34L2571.82,-8312.74L2621.58,-8302.79L2648.92,-8247.03L2640.22,-8204.71L2696.53,-8139.39L2683.91,-8110.14L2696.81,-8072.31L2582.47,-8023.95L2404.09,-7996.26L2276.43,-7998.8L2243.8,-7931.14L2245.14,-7856.84L2152.87,-7745.5L2157.54,-7637.47L2077.47,-7630.64L2077.37,-7569.8L2032.83,-7542.69L2030.28,-7487.7L1717.38,-7478.54L1674.31,-7434.66L1695.99,-7191.48L1728.47,-7162.43L1703.75,-7073.5L1638.38,-6999.01L1596.4,-7001.74L1552.74,-7068.63L1518.13,-7091.05L1518.05,-7095.54L1558.12,-7143.32L1541.99,-7272.8L1517.25,-7283.14L1516.93,-7320.97L1478.74,-7360.36L1456.59,-7485.36L1456.47,-7579.94L1469.62,-7681.34L1473.08,-7765.78L1505.09,-7809.65L1531.22,-7826.42L1557.79,-7914.56L1481.12,-7904.03L1405.31,-7903.45L1411.38,-7960.39L1430.28,-8000.55L1416.76,-8111.7L1476.25,-8100L1499.33,-8120.28L1484.82,-8183.65L1446.51,-8579.67L1426.53,-8616.91L1413.97,-8724.93L1375.67,-8721.62L1365.72,-8799.22L1398.52,-8832.95L1442.39,-8829.25L1432.58,-8929.46L1452.36,-8922.44L1665.51,-8799.42L1735.38,-8762.76L1805.05,-8733.51Z" class="land" id="EG-DK" title="Ad Daqahliyah"/>
    <path d="M2408.9,-8846.4L2423.2,-8819.5L2401.46,-8806.43L2371.15,-8873.31L2394.9,-8876.82ZM2330.02,-8335.36L2270.39,-8320.93L2165.26,-8256L2026.37,-8181.12L2040.19,-8326.78L2043.83,-8419.4L2006.57,-8453.32L1961.81,-8476.92L1925.86,-8484.33L1915.47,-8559.39L1853.1,-8550.62L1767.07,-8549.26L1761.81,-8606.78L1815,-8630.37L1867.4,-8660.79L1861.21,-8728.05L1890.56,-8728.05L1968.76,-8744.82L2065.82,-8773.09L2176.88,-8812.09L2229.98,-8841.34L2293.04,-8883.45L2303.9,-8857.52L2299.51,-8831L2309.39,-8805.26L2343.45,-8759.64L2341.42,-8716.16L2292.27,-8778.36L2272.45,-8754.77L2274.86,-8716.74L2304.17,-8736.05L2326.55,-8709.73L2320.11,-8694.91L2351.26,-8649.67L2310.55,-8658.64L2303.8,-8643.63L2325.55,-8612.04L2294.69,-8598.98L2326.81,-8569.14L2378.45,-8543.8L2365.76,-8470.48L2350.91,-8422.13L2328.96,-8426.61L2320.03,-8358.95ZM2413.7,-8885.59L2453.08,-8863.37L2491.14,-8819.5L2470.81,-8796.3L2448.89,-8829.64L2403.4,-8877.99ZM2533.52,-8708.56L2567.77,-8657.67L2694.27,-8556.47L2742.02,-8533.66L2819.58,-8485.5L2870.44,-8444.74L2847.37,-8440.65L2763.99,-8493.1L2714.01,-8517.47L2619.94,-8594.1L2555.12,-8618.67L2535.74,-8588.64L2516.76,-8610.87L2542.84,-8637.58L2542.11,-8679.7Z" class="land" id="EG-DT" title="Dumyat"/>
    <path d="M-509.29,-4128.76L-305.11,-4403.57L-232.86,-4441.4L-9.83,-4753.85L42.85,-4759.31L242.25,-5028.66L372.12,-5066.3L505.84,-5163.42L639.06,-5265.82L695.73,-5276.54L780.73,-5333.69L828.26,-5380.5L829.73,-5422.04L1328.78,-5426.72L1327.03,-5373.87L1332.48,-5268.35L1362.82,-5232.08L1419.31,-5125.98L1462.91,-4935.04L1501.2,-4804.76L1514.74,-4745.07L1420.61,-4667.65L1313.21,-4468.32L1138.94,-4130.12L354.3,-3890.81L303.31,-3887.3L266.73,-3902.52L267.1,-3967.27L188.25,-4010.37L-199.6,-4085.66L-405.99,-4112.77Z" class="land" id="EG-FYM" title="Al Fayyum"/>
    <path d="M808.87,-7255.84L777.9,-7251.74L762.19,-7299.71L770,-7341.84L769.2,-7403.85L745.44,-7412.23L740,-7474.25L767.33,-7505.06L782.72,-7538.99L752.11,-7572.72L732.26,-7614.85L696.09,-7631.81L714.63,-7657.16L705.93,-7755.64L675.06,-7766.95L670.83,-7865.42L611.6,-7910.27L602.73,-8015.96L624.43,-7996.26L704.18,-7865.81L747.96,-7865.62L762.13,-7826.42L928.25,-7826.42L935.67,-7897.4L1121.39,-7894.09L1102.66,-8103.51L1136.4,-8101.17L1320,-8117.16L1416.76,-8111.7L1430.28,-8000.55L1411.38,-7960.39L1405.31,-7903.45L1481.12,-7904.03L1557.79,-7914.56L1531.22,-7826.42L1505.09,-7809.65L1473.08,-7765.78L1469.62,-7681.34L1456.47,-7579.94L1456.59,-7485.36L1478.74,-7360.36L1516.93,-7320.97L1517.25,-7283.14L1541.99,-7272.8L1558.12,-7143.32L1518.05,-7095.54L1377.81,-7160.67L1267.73,-7161.45L1262.41,-7200.06L1241.77,-7245.5L1083.96,-7243.75L1067.71,-7273.97L1026.61,-7275.92L1020.93,-7309.66L935.08,-7309.66L932.74,-7272.61Z" class="land" id="EG-GH" title="Al Gharbiyah"/>
    <path d="M1580.63,-6172.12L1605.21,-5955.25L1575.02,-5928.34L1613.69,-5866.51L1625.74,-5797.47L1723.06,-5763.54L1745.45,-5444.08L1702.49,-5438.42L1713.51,-5336.03L1754.43,-5300.14L1756.62,-5225.84L1731.18,-5202.63L1728.64,-5159.13L1736.76,-5013.05L1711.82,-4959.22L1714.95,-4897.79L1706.69,-4872.24L1680.98,-4851.76L1672.78,-4823.48L1671.3,-4767.11L1683.56,-4709.38L1620.01,-4724.4L1534.4,-4761.26L1514.74,-4745.07L1501.2,-4804.76L1462.91,-4935.04L1419.31,-5125.98L1362.82,-5232.08L1332.48,-5268.35L1327.03,-5373.87L1328.78,-5426.72L829.73,-5422.04L828.26,-5380.5L780.73,-5333.69L695.73,-5276.54L639.06,-5265.82L505.84,-5163.42L372.12,-5066.3L242.25,-5028.66L42.85,-4759.31L-9.83,-4753.85L-232.86,-4441.4L-305.11,-4403.57L-509.29,-4128.76L-541.65,-3898.42L-545.84,-3684.46L-550.48,-3564.52L-608.44,-3473.82L-636.05,-3307.85L-683.78,-3196.48L-716.21,-3068.15L-756.54,-2862.78L-782.46,-2648.82L-860.55,-2563.2L-946.57,-2486.17L-1107,-2366.42L-1231.57,-2238.09L-1321.45,-2212.34L-1407.62,-2135.31L-1537.98,-2084.01L-1677.57,-1964.27L-1786.23,-1904.2L-1974.06,-1861.49L-2028.1,-1827.36L-2081.51,-1784.45L-2104.66,-1716L-2112.53,-1630.38L-2128.77,-1561.93L-2157.81,-1476.51L-2199.5,-1369.83L-3218.76,-1369.99L-4237.59,-1364.56L-4307.94,-1364.76L-3702.66,-3113.01L-2967.97,-3307.06L-2232.11,-3498.01L-1703.43,-4104.24L-1172.74,-4708.6L-967.32,-5023.19L-736.04,-5085.22L26.35,-5653.74L134.72,-5668.75L160.23,-5685.72L182.37,-5735.06L330.45,-5981.77L570.11,-6263.59L663.77,-6276.85L887.35,-6543.64L938.51,-6547.93L960.47,-6569.77L1035.67,-6564.51L1049.09,-6444.76L1099.6,-6447.49L1134.86,-6413.75L1143.1,-6346.28L1178.37,-6312.54L1236.99,-6301.23L1263.03,-6335.16L1324.11,-6308.44L1391.01,-6336.33L1458.88,-6231.6L1549.58,-6175.63Z" class="land" id="EG-GZ" title="Al Jizah"/>
    <path d="M2989.52,-8324.44L3004.8,-8306.11L3023.78,-8318.2L3046.6,-8254.83L3042.92,-8241.18L2985.48,-8266.72L2967.46,-8240.79L2952.85,-8257.17L2917.21,-8262.82L2874.28,-8250.73L2836.06,-8291.09L2868,-8323.46L2936.65,-8321.51L2951.57,-8310.4ZM3122.57,-8047.16L3201.39,-8040.92L3273.4,-8004.84L3390.97,-7961.56L3504.38,-7889.21L3616.62,-7858.79L3648.83,-7603.73L3747.09,-6944.4L3878.88,-6754.65L3948.62,-6643.1L4012.31,-6498L4049.29,-6392.69L3843.91,-6403.03L3681.43,-6383.53L3624.61,-6330.29L3404.44,-6346.47L3307.56,-6376.9L2644.31,-6372.8L2577.02,-6366.17L2573.26,-6395.81L2512.09,-6529.21L2500.22,-6543.83L2448.1,-6728.13L2417.73,-6899.55L2355.13,-6932.31L2343.5,-6994.33L2424.6,-6990.62L2442.42,-6957.86L2577.6,-6950.45L2595.61,-6983.21L2774.06,-6994.33L2780.15,-7029.62L2925.92,-7282.36L2913.95,-7383.76L2868.67,-7527.87L2918.96,-7681.73L2920.63,-7750.57L2980.99,-7752.52L2954.69,-7963.31L2884.6,-7966.63L2856.79,-8011.86L2830.21,-8043.84L2837.11,-8065.88L2863.01,-8081.09L2851.19,-8120.87L2896.79,-8121.45L2889.92,-8190.48L2902.53,-8209.39L2928.82,-8196.13L2953.59,-8121.84L2944.55,-8067.83L3038.16,-8086.16L3060.93,-8114.43L3096.86,-8107.41Z" class="land" id="EG-IS" title="Al Isma iliyyah"/>
    <path d="M4200.13,-5741.89L4267.21,-5739.16L4275.81,-5745.01L4510.06,-5761.39L4859.63,-5750.28L5161.81,-5705.61L5199.03,-5694.69L5350.88,-5697.42L5650.07,-5624.87L5718.36,-5588.4L6020.3,-5398.63L6147.34,-5314.97L6279.93,-5270.3L6420.64,-5236.76L6649.33,-5097.31L6782.63,-5054.21L6879.76,-5013.83L6930.2,-5018.32L6942.24,-5007.98L7082.15,-4985.55L7207.05,-4974.44L7342.84,-4946.55L7475.79,-4952.4L7563.4,-4930.16L7500.09,-4902.08L7484.59,-4880.82L7479.77,-4827.77L7452.63,-4785.06L7417.42,-4742.73L7421.74,-4710.16L7390.49,-4690.66L7381,-4630.59L7356.97,-4619.67L7328,-4572.08L7336.09,-4538.53L7335.97,-4481L7323.1,-4460.52L7341.82,-4390.11L7334.01,-4347.78L7316.36,-4326.72L7313.28,-4297.47L7273.02,-4279.52L7276.57,-4249.68L7262.09,-4174.98L7266.81,-4153.33L7254.33,-4114.33L7262.52,-4074.15L7249.72,-4052.5L7269.64,-4005.3L7287.82,-3987.55L7296.54,-3925.72L7245.63,-3902.52L7228.29,-3881.26L7229.92,-3844L7252.68,-3756.63L7246.87,-3726.98L7256.65,-3688.36L7217.85,-3653.65L7229.53,-3594.16L7232.08,-3525.31L7240.35,-3503.27L7232.07,-3461.54L7239.24,-3426.82L7219.47,-3364.41L7178.16,-3287.56L7181.82,-3227.3L7146.94,-3201.94L7140.33,-3141.29L7102.58,-3088.63L7098.75,-3018.22L7115.92,-2984.67L7099.55,-2928.31L7081.91,-2945.67L7061.74,-2940.79L7043.82,-2901.78L7042.75,-2874.09L7022.52,-2859.07L7027.97,-2828.65L7013.86,-2781.06L7020.16,-2751.8L7012.03,-2711.04L6983,-2680.81L6967.89,-2635.17L6978.95,-2519.32L6990.88,-2495.53L6984.65,-2474.86L6992.42,-2443.45L7012.35,-2409.32L7050.55,-2372.46L7060.93,-2305.96L7047.59,-2283.72L7056.07,-2253.3L7048.57,-2192.06L7037.04,-2174.7L7045.12,-2145.06L7060.99,-2131.41L7060.11,-2086.35L7071.16,-2066.85L7061.73,-1985.13L7040.15,-1940.67L7013.29,-1936.38L6995.96,-1893.08L6970.75,-1879.04L6970.34,-1854.07L6936.25,-1832.82L6913.99,-1842.18L6900.16,-1778.79L6908,-1751.69L6898.01,-1712.68L6876.4,-1712.68L6863.16,-1740.76L6827,-1724.58L6828.93,-1681.87L6813.86,-1602.69L6785.62,-1593.52L6729.3,-1601.52L6733.86,-1580.45L6758.27,-1551.78L6808.16,-1543.59L6828.4,-1486.65L6798.49,-1489.38L6762.73,-1526.24L6727.86,-1577.14L6668.96,-1599.96L6659.97,-1590.2L6619.61,-1611.27L6541.54,-1613.41L6508.57,-1625.5L6468.77,-1651.44L6430.9,-1701.76L6403.3,-1720.87L6360.94,-1785.82L6300.33,-1802.59L6224.21,-1890.94L6201.54,-1879.04L6168.2,-1891.91L6141.08,-1926.04L6079.66,-1958.02L6023.37,-2029.6L5982.02,-2047.54L5981.2,-2083.23L5968.35,-2107.03L5889.73,-2140.57L5879.83,-2184.45L5849.28,-2215.46L5830.02,-2257.59L5808.75,-2270.66L5802.82,-2318.83L5739.42,-2353.55L5727.44,-2378.51L5717.92,-2453.21L5697.5,-2477L5665.15,-2487.92L5651.26,-2534.93L5633.67,-2540.97L5615.27,-2584.27L5586.92,-2591.87L5558.51,-2620.54L5507.07,-2640.05L5483.96,-2668.91L5387.81,-2721.38L5337.93,-2769.55L5270.36,-2863.95L5269.98,-2885.01L5238.86,-2919.14L5213.28,-2924.6L5123.96,-3006.32L5092.2,-3079.46L5090.36,-3109.89L5067.59,-3146.16L5034.38,-3141.29L5012.73,-3155.33L5003.95,-3236.07L4980.34,-3265.33L4961.73,-3314.67L4969.62,-3373.77L4967.18,-3407.32L4982.86,-3432.28L4997.11,-3508.54L4972.47,-3534.68L4946.69,-3584.99L4923.07,-3605.08L4886.62,-3674.32L4883.5,-3715.47L4892.03,-3735.56L4879.98,-3755.65L4900.43,-3806.56L4865.03,-3880.28L4875.25,-3961.42L4840.63,-3975.07L4825.92,-4005.3L4783.01,-4025.39L4771.25,-4047.62L4732.53,-4051.33L4728.46,-4072L4692.84,-4091.51L4691.8,-4128.95L4643.19,-4179.27L4623.77,-4191.76L4603.18,-4223.16L4586.02,-4226.47L4550.56,-4278.94L4516,-4286.54L4473.61,-4357.54L4426.9,-4360.85L4396.7,-4393.81L4357.85,-4415.46L4338.17,-4456.62L4345.47,-4484.9L4325.17,-4523.9L4274.23,-4569.93L4256.25,-4575.39L4250.77,-4633.9L4226.06,-4655.55L4230.45,-4702.17L4223.12,-4743.32L4193.33,-4758.92L4160.1,-4806.12L4105.93,-4828.94L4063.23,-4868.92L4074.39,-4902.47L4052.69,-4946.35L4039.7,-5038.6L4013.93,-5108.42L3968.19,-5121.3L3982.48,-5166.35L3957.69,-5244.95L3968.91,-5288.25L3962.14,-5313.8L3976.29,-5345.78L3969.68,-5385.76L3938.44,-5435.69L3916.71,-5438.42L3906.72,-5465.92L3883.71,-5492.05L4113.08,-5688.84L4202.91,-5711.07Z" class="land" id="EG-JS" title="Janub Sina"/>
    <path d="M1580.63,-6172.12L1549.58,-6175.63L1458.88,-6231.6L1391.01,-6336.33L1369.59,-6510.68L1332.81,-6576.4L1312.26,-6646.81L1348.94,-6747.04L1424.55,-6806.14L1504.71,-6875.17L1519.02,-6921.59L1518.13,-7091.05L1552.74,-7068.63L1596.4,-7001.74L1638.38,-6999.01L1597.59,-6950.25L1602.95,-6856.84L1579.72,-6855.47L1588.39,-6756.99L1631.57,-6717.21L1676.31,-6661.63L1727.42,-6571.72L1772.63,-6470.7L1854.18,-6407.9L1945.54,-6357.39L1953.8,-6347.25L2021.59,-6306.49L1861.64,-6295.38L1710.74,-6228.29L1650,-6164.51Z" class="land" id="EG-KB" title="Al Qalyubiyah"/>
    <path d="M1432.58,-8929.46L1442.39,-8829.25L1398.52,-8832.95L1365.72,-8799.22L1375.67,-8721.62L1413.97,-8724.93L1426.53,-8616.91L1446.51,-8579.67L1484.82,-8183.65L1499.33,-8120.28L1476.25,-8100L1416.76,-8111.7L1320,-8117.16L1136.4,-8101.17L1102.66,-8103.51L1121.39,-7894.09L935.67,-7897.4L928.25,-7826.42L762.13,-7826.42L747.96,-7865.62L704.18,-7865.81L624.43,-7996.26L602.73,-8015.96L395.21,-8204.71L266.11,-8191.65L244.1,-8449.03L134.21,-8568.95L103.46,-8751.45L173.14,-8751.65L260.49,-8771.73L496.4,-8858.3L600.84,-8886.57L665.62,-8933.75L687.97,-8926.34L724.44,-8944.48L840.26,-8975.28L890.2,-9004.72L894.43,-8958.12L855.16,-8969.24L735.45,-8933.75L684.08,-8902.36L666.12,-8880.53L603.63,-8845.04L491.06,-8800.58L456.34,-8762.76L446.36,-8731.76L398.55,-8720.64L345.81,-8718.3L334.83,-8698.42L307.64,-8693.93L268.74,-8702.71L240.06,-8691.59L237.67,-8618.28L311.03,-8609.51L415.09,-8612.43L429.34,-8684.96L468.46,-8673.85L533.48,-8628.22L554.71,-8658.25L560.77,-8684.96L622.28,-8731.76L641.03,-8736.05L678.79,-8693.93L717.99,-8705.05L825.19,-8692.37L862.62,-8717.72L941.14,-8740.14L967.47,-8785.77L983.76,-8838.22L1004.02,-8871.56L1089.45,-8864.93L1095.17,-8826.52L1120.31,-8816.57L1138.32,-8885.01L1107.47,-8922.64L1035.51,-8967.09L984.86,-8989.32L917.67,-9002.38L948.17,-9019.35L1000.38,-9034.16L1093.51,-9037.28L1276.14,-8982.11L1365.47,-8958.9Z" class="land" id="EG-KFS" title="Kafr ash Shaykh"/>
    <path d="M4676.53,3558.9L4584.98,3511.34L4489.41,3424.79L4441.28,3386.78L4387.58,3260.66L4363.83,3142.53L4365.91,3081.31L4333.84,3021.47L4319.12,2898.65L4270.23,2800.6L4244.01,2758.29L4241.13,2666.08L4268.36,2586.35L4327.13,2514.22L4418.92,2469.38L4506.86,2372.09L4560.96,2294.89L4581.36,2235.23L4573.34,2130.54L4587.2,2068.35L4634.86,1961.12L4676.71,1883.91L4660.97,1795.59L4610.01,1706.68L4574.48,1676.66L4480.96,1671.78L4391.05,1711.56L4326.91,1766.34L4180.92,1833.61L4141.71,1861.1L4075.23,1885.86L4009.35,1890.93L3935.95,1905.94L3885.59,1923.29L3712.25,1928.17L3652.54,1903.6L3464.61,1737.29L3378.15,1633.37L3399.57,1589.11L3431.87,1551.68L3480.84,1514.24L3528.45,1514.24L3570.53,1496.89L3615.28,1459.45L3636.62,1414.61L3667.33,1409.73L3712.63,1434.5L3725.11,1489.48L3753.42,1556.75L3815.88,1593.99L3855.03,1646.24L3898.6,1646.24L3943.38,1581.7L4003.92,1577.02L4053.45,1547.19L4123.33,1487.34L4222.59,1407.59L4309.13,1375.22L4528.18,1372.69L4692.38,1410.12L4821.49,1499.81L4880.32,1589.5L4909.01,1674.9L4957.4,1772L4980.48,1906.33L4992.47,2048.46L4988.83,2091.55L4942.58,2307.37L4881.04,2430.97L4684.28,2578.94L4625.1,2700.98L4568.43,2773.11L4544.85,2845.43L4560.79,3057.14L4597.31,3156.76L4660.58,3253.83L4687.96,3279.18L4700.93,3420.11ZM4460.27,2608.38L4527.61,2621.63L4579.24,2611.69L4608.46,2558.67L4626.22,2502.13L4632.43,2438.96L4535.03,2429.02L4495.1,2558.67Z" class="land" id="EG-KN" title="Qina"/>
    <path d="M4460.27,2608.38L4495.1,2558.67L4535.03,2429.02L4632.43,2438.96L4626.22,2502.13L4608.46,2558.67L4579.24,2611.69L4527.61,2621.63Z" class="land" id="EG-LX" title="Al Uqsur"/>
    <path d="M-2199.5,-1369.83L-2157.81,-1476.51L-2128.77,-1561.93L-2112.53,-1630.38L-2104.66,-1716L-2081.51,-1784.45L-2028.1,-1827.36L-1974.06,-1861.49L-1786.23,-1904.2L-1677.57,-1964.27L-1537.98,-2084.01L-1407.62,-2135.31L-1321.45,-2212.34L-1231.57,-2238.09L-1107,-2366.42L-946.57,-2486.17L-860.55,-2563.2L-782.46,-2648.82L-756.54,-2862.78L-716.21,-3068.15L-683.78,-3196.48L-636.05,-3307.85L-608.44,-3473.82L-519.24,-3482.6L-216.19,-3493.72L-161.74,-3492.55L434.3,-3514.8L1030.58,-3535.07L1121.81,-3481.23L1231.66,-3404.2L1366.55,-3385.08L1355.19,-3323.26L1320.77,-3181.07L1337.94,-2921.68L1266.95,-2786.13L1229.3,-2699.92L1211.22,-2592.07L1222.62,-2506.06L1263.36,-2274.17L1407.13,-1977.92L1442.94,-1751.69L1493.99,-1611.66L1517.46,-1428.33L1514.22,-1299.03L1413.78,-1306.45L1361.91,-1253.79L1273.46,-1268.81L1206.48,-1287.72L1097.43,-1287.72L1088.5,-1363L279.11,-1369.99L-530.04,-1373.46L-1338.94,-1373.4L-2147.56,-1369.83Z" class="land" id="EG-MN" title="Al Minya"/>
    <path d="M1518.05,-7095.54L1518.13,-7091.05L1519.02,-6921.59L1504.71,-6875.17L1424.55,-6806.14L1348.94,-6747.04L1312.26,-6646.81L1332.81,-6576.4L1369.59,-6510.68L1391.01,-6336.33L1324.11,-6308.44L1263.03,-6335.16L1236.99,-6301.23L1178.37,-6312.54L1143.1,-6346.28L1134.86,-6413.75L1099.6,-6447.49L1049.09,-6444.76L1035.67,-6564.51L960.47,-6569.77L938.51,-6547.93L887.35,-6543.64L886.37,-6612.29L935.15,-6618.14L931.83,-6687.76L915.14,-6839.29L889.46,-6897.21L893.25,-6961.95L848.46,-6995.11L859.13,-7063.36L820.67,-7066.09L814.88,-7081.11L808.87,-7255.84L932.74,-7272.61L935.08,-7309.66L1020.93,-7309.66L1026.61,-7275.92L1067.71,-7273.97L1083.96,-7243.75L1241.77,-7245.5L1262.41,-7200.06L1267.73,-7161.45L1377.81,-7160.67Z" class="land" id="EG-MNF" title="Al Minufiyah"/>
    <path d="M-1177.4,-7902.67L-1168.37,-7787.62L-1038.4,-6640.76L-1020.43,-6425.26L-968.58,-6348.62L-851.18,-6290.5L-699.09,-6285.04L-456.29,-6095.08L-383.28,-6059L-96.12,-5847.59L6.42,-5826.73L69.56,-5786.55L134.72,-5668.75L26.35,-5653.74L-736.04,-5085.22L-967.32,-5023.19L-1172.74,-4708.6L-1703.43,-4104.24L-2232.11,-3498.01L-2967.97,-3307.06L-3702.66,-3113.01L-4307.94,-1364.76L-5249.17,-1372L-6190.11,-1374.48L-7130.73,-1372.19L-8071,-1365.15L-8100.03,-1364.95L-8201.98,-2907.05L-8307.08,-4449.2L-8326.81,-4483.92L-8388,-4635.66L-8474.54,-4801.05L-8495.52,-4858.39L-8525,-4899.54L-8568.43,-5003.11L-8574.67,-5030.61L-8552.32,-5106.28L-8523.02,-5148.6L-8524.8,-5192.68L-8598.26,-5356.31L-8668.74,-5500.05L-8676.96,-5551.15L-8680.87,-5689.62L-8696.4,-5753.4L-8816.6,-6098.21L-8912.3,-6201.76L-8898.76,-6266.32L-8864.61,-6351.93L-8829.81,-6427.99L-8817.13,-6472.65L-8801.42,-6557.88L-8724.53,-6631.01L-8690.22,-6681.71L-8667.33,-6746.46L-8646.33,-6786.05L-8592.83,-6849.82L-8567.77,-6975.02L-8570.05,-7037.62L-8563.6,-7078.96L-8532.48,-7168.28L-8520.27,-7301.86L-8489.77,-7403.46L-8487.95,-7428.81L-8544.94,-7592.22L-8547.12,-7630.84L-8567.43,-7692.26L-8598.97,-7739.06L-8621.49,-7793.66L-8636.89,-7859.96L-8688.01,-7990.81L-8715.02,-8038.97L-8754.72,-8123.01L-8768.08,-8187.55L-8769.68,-8237.47L-8764.97,-8372.79L-8773.07,-8454.3L-8785.19,-8493.1L-8810.14,-8530.54L-8831.21,-8634.07L-8828.96,-8653.18L-8712.55,-8756.52L-8676.25,-8798.05L-8527.54,-8918.16L-8515.89,-8947.79L-8509.98,-9024.02L-8494.94,-9069.84L-8454.37,-9117.42L-8435.86,-9161.48L-8408.96,-9164.01L-8408,-9102.79L-8392.43,-9084.47L-8381.68,-9047.62L-8345.15,-8969.04L-8374.18,-8954.42L-8360.64,-8916.6L-8335.58,-8894.95L-8287.19,-8874.87L-8153.79,-8846.21L-8040.97,-8847.18L-7991.49,-8842.31L-7908.07,-8865.12L-7858.68,-8867.85L-7816.81,-8877.02L-7729.16,-8911.14L-7668.47,-8928.49L-7335.31,-9059.51L-7288.15,-9068.09L-7229.09,-9087.59L-7194.5,-9087.59L-7108.01,-9063.8L-7054.96,-9057.95L-7031,-9047.03L-6975.06,-9039.04L-6889.67,-9017.2L-6875.56,-9005.89L-6815.52,-8992.44L-6806.07,-8983.67L-6574.99,-8917.57L-6556.24,-8904.12L-6426.49,-8870L-6374.66,-8870L-6298.57,-8855.37L-6235.75,-8827.1L-6155.56,-8837.44L-6085.83,-8814.62L-5993.6,-8817.94L-5897.5,-8800.58L-5829.88,-8804.48L-5781.78,-8783.23L-5764.62,-8757.88L-5717.13,-8744.24L-5669.99,-8721.03L-5538.96,-8722.01L-5472.19,-8728.64L-5414.03,-8693.35L-5389.58,-8658.84L-5335.99,-8654.94L-5307.5,-8619.84L-5248.71,-8592.74L-5135.33,-8595.27L-5127.07,-8563.88L-5081.75,-8567.78L-5027.8,-8557.45L-5006.44,-8577.53L-4976.99,-8576.36L-4888.07,-8589.42L-4846.69,-8570.9L-4852.69,-8524.49L-4822.27,-8481.6L-4788.73,-8411.79L-4780.33,-8372.79L-4744.05,-8330.48L-4713.08,-8304.55L-4669.89,-8279.59L-4606.72,-8266.14L-4504.99,-8263.41L-4471.89,-8232.99L-4410.79,-8243.32L-4367.29,-8244.3L-4349.8,-8207.64L-4287.44,-8204.32L-4272.92,-8216.22L-4226.19,-8226.55L-4071.5,-8287.19L-4045.85,-8303.38L-4022.02,-8341.99L-4008,-8334.38L-4005.11,-8277.44L-3994.03,-8233.57L-3957.13,-8193.99L-3958.52,-8156.16L-3942.04,-8091.03L-3928.66,-8073.68L-3890.46,-8051.64L-3847.2,-8041.89L-3732.43,-8032.53L-3635.92,-8029.8L-3548.33,-8042.28L-3505.29,-8037.41L-3479.71,-8017.52L-3440.78,-8002.31L-3383.97,-8006.6L-3294.91,-8003.28L-3236.39,-7992.56L-3138.44,-8026.68L-3072.74,-8031.56L-2990.38,-7974.04L-2933.93,-7955.71L-2882.78,-7959.02L-2862.49,-7945.37L-2812.57,-7930.75L-2802.91,-7900.91L-2782.01,-7889.6L-2710.71,-7869.52L-2623.6,-7866.79L-2596.02,-7834.81L-2556.39,-7832.66L-2522.05,-7794.25L-2481.02,-7775.33L-2422.95,-7770.46L-2414.72,-7719.56L-2370.96,-7679.39L-2315.07,-7652.87L-2288.21,-7618.16L-2185.75,-7575.45L-2133.77,-7521.24L-2095.08,-7526.7L-2010.74,-7509.93L-1923.02,-7512.08L-1884.41,-7518.51L-1793.33,-7543.47L-1713.68,-7578.77L-1627.68,-7606.85L-1497.36,-7671.79L-1466.11,-7695.19L-1406.82,-7723.27L-1347.8,-7765.58L-1288.69,-7801.27L-1237.23,-7853.33Z" class="land" id="EG-MT" title="Matruh"/>
    <path d="M3196.47,-8285.63L3291.47,-8232.4L3299.33,-8218.36L3345.08,-8184.82L3416.79,-8100.78L3420.73,-8082.45L3492.66,-8020.05L3545.35,-7987.69L3606.01,-7972.48L3616.62,-7858.79L3504.38,-7889.21L3390.97,-7961.56L3273.4,-8004.84L3201.39,-8040.92L3122.57,-8047.16L3112.15,-8071.73L3142.45,-8099.61L3209.62,-8230.26ZM3137.23,-8321.9L3108.94,-8276.08L3098.77,-8318.39L3077.59,-8362.46L3061.43,-8318.39L3042.16,-8292.26L3016.86,-8346.28L3021.33,-8382.15L3031.37,-8396L3084.53,-8392.29L3111.63,-8363.63L3115.37,-8342.38Z" class="land" id="EG-PTS" title="Bur Sa`id"/>
    <path d="M3943.38,1581.7L3898.6,1646.24L3855.03,1646.24L3815.88,1593.99L3753.42,1556.75L3725.11,1489.48L3712.63,1434.5L3667.33,1409.73L3636.62,1414.61L3615.28,1459.45L3570.53,1496.89L3528.45,1514.24L3480.84,1514.24L3431.87,1551.68L3399.57,1589.11L3378.15,1633.37L3336.97,1583.85L3271.51,1491.82L3237.99,1477L3181.43,1414.61L3066.77,1267.6L2972.75,1132.08L2836.78,962.25L2757.62,847.6L2671.83,728.65L2627.27,655.92L2550.38,596.06L2458.39,577.73L2340.2,442.99L2239.6,316.04L2215.53,244.68L2238.21,236.88L2278.13,198.85L2337.18,161.6L2366.29,136.64L2402.51,71.9L2419.93,29.59L2484.5,37L2519.01,81.85L2556.8,158.68L2597.27,196.9L2633.24,269.05L2713.15,269.64L2732.26,282.5L2827.94,319.55L3051.84,508.7L3132.03,608.54L3153.34,670.74L3192.31,720.66L3253.12,741.33L3277.64,857.74L3331.86,998.52L3378.93,1067.54L3410.62,1100.69L3514.05,1167.96L3662.91,1215.34L3732.16,1267.4L3777.36,1368.59L3859.46,1478.17L3872.02,1483.44L3870.13,1547.39Z" class="land" id="EG-SHG" title="Suhaj"/>
    <path d="M2856.79,-8011.86L2884.6,-7966.63L2954.69,-7963.31L2980.99,-7752.52L2920.63,-7750.57L2918.96,-7681.73L2868.67,-7527.87L2913.95,-7383.76L2925.92,-7282.36L2780.15,-7029.62L2774.06,-6994.33L2595.61,-6983.21L2577.6,-6950.45L2442.42,-6957.86L2424.6,-6990.62L2343.5,-6994.33L2355.13,-6932.31L2417.73,-6899.55L2448.1,-6728.13L2500.22,-6543.83L2290.81,-6378.26L2184.9,-6306.49L2021.59,-6306.49L1953.8,-6347.25L1945.54,-6357.39L1854.18,-6407.9L1772.63,-6470.7L1727.42,-6571.72L1676.31,-6661.63L1631.57,-6717.21L1588.39,-6756.99L1579.72,-6855.47L1602.95,-6856.84L1597.59,-6950.25L1638.38,-6999.01L1703.75,-7073.5L1728.47,-7162.43L1695.99,-7191.48L1674.31,-7434.66L1717.38,-7478.54L2030.28,-7487.7L2032.83,-7542.69L2077.37,-7569.8L2077.47,-7630.64L2157.54,-7637.47L2152.87,-7745.5L2245.14,-7856.84L2243.8,-7931.14L2276.43,-7998.8L2404.09,-7996.26L2582.47,-8023.95L2696.81,-8072.31L2685.88,-8029.8L2709.68,-8036.63L2777.32,-8016.54L2764.21,-8044.43L2794.97,-8043.26L2834.19,-8009.33Z" class="land" id="EG-SHR" title="Ash Sharqīyah"/>
    <path d="M4415.68,-8312.74L4334.48,-8300.65L4333.83,-8265.55L4284.32,-8259.12L4216.39,-8216.41L4194.94,-8195.16L4122.31,-8163.18L4309.77,-8293.63L4359.6,-8310.01ZM7563.4,-4930.16L7475.79,-4952.4L7342.84,-4946.55L7207.05,-4974.44L7082.15,-4985.55L6942.24,-5007.98L6930.2,-5018.32L6879.76,-5013.83L6782.63,-5054.21L6649.33,-5097.31L6420.64,-5236.76L6279.93,-5270.3L6147.34,-5314.97L6020.3,-5398.63L5718.36,-5588.4L5650.07,-5624.87L5350.88,-5697.42L5199.03,-5694.69L5161.81,-5705.61L4859.63,-5750.28L4510.06,-5761.39L4275.81,-5745.01L4267.21,-5739.16L4200.13,-5741.89L4193.84,-5811.51L4138.21,-5817.17L4103.9,-6246.81L4053.47,-6392.5L4049.29,-6392.69L4012.31,-6498L3948.62,-6643.1L3878.88,-6754.65L3747.09,-6944.4L3648.83,-7603.73L3616.62,-7858.79L3606.01,-7972.48L3665.63,-7971.89L3724.57,-7978.52L3828.01,-8004.45L3825.39,-7989.83L3765.49,-7976.38L3766.89,-7932.5L3795.23,-7924.9L3817.98,-7951.42L3847.37,-7941.08L3885.68,-7948.1L3917.2,-7986.52L3962.62,-8016.35L4014.94,-8032.14L4083.29,-8030.39L4105.56,-8024.54L4114.82,-8053.2L4157.67,-8037.41L4183.26,-7981.25L4201.11,-7957.85L4233.53,-7957.85L4258.77,-7989.83L4229.91,-7999.58L4232.68,-8017.52L4283.38,-8053.79L4293.52,-8078.16L4258.34,-8088.89L4251.59,-8047.16L4155.07,-8041.31L4210.98,-8091.62L4241.17,-8157.14L4345.36,-8209.78L4372.57,-8197.3L4396.67,-8163.76L4410.93,-8126.33L4394.4,-8117.16L4382.28,-8086.74L4401.76,-8073.29L4404.79,-8041.31L4445.86,-8019.08L4449.8,-7969.16L4443.48,-7946.54L4488.49,-7953.56L4530.14,-7977.35L4529.35,-7994.12L4562.81,-8006.6L4626.92,-8014.2L4669.86,-8042.87L4693.93,-8031.56L4721.86,-8078.55L4739.08,-8075.43L4797.96,-8085.77L4797.28,-8129.64L4832.23,-8189.7L4748.63,-8229.28L4792.15,-8229.87L4873.52,-8190.28L4924.86,-8139.39L4934.95,-8122.43L4979.41,-8116.58L4994.08,-8103.51L5068.81,-8086.74L5177.7,-8083.43L5295.38,-8091.62L5419,-8120.87L5508.97,-8152.85L5611.71,-8181.51L5763.15,-8247.61L5875.6,-8308.84L5947.16,-8355.44L6044.09,-8429.54L6127.56,-8513.57L6211.05,-8297.72L6387.82,-7838.32L6506.46,-7557.32L6677.41,-7245.7L6743.46,-7042.69L6749.11,-6936.21L6826.84,-6850.21L6803.22,-6751.73L6813.14,-6691.85L6932.11,-6614.63L6977.21,-6485.13L7221.16,-5920.54L7220.62,-5890.89L7430.93,-5402.93L7438.69,-5308.92L7472.43,-5255.68L7483.11,-5219.01L7480.59,-5165.76L7470.53,-5112.52L7493.06,-5023L7518.22,-4980.68Z" class="land" id="EG-SIN" title="Shamal Sina"/>
    <path d="M2799.41,-3917.34L2780.77,-4459.93L2775.46,-5427.3L2762.32,-5591.91L2688.23,-5916.83L2648.72,-6101.13L2590.6,-6261.83L2577.02,-6366.17L2644.31,-6372.8L3307.56,-6376.9L3404.44,-6346.47L3624.61,-6330.29L3681.43,-6383.53L3843.91,-6403.03L4053.47,-6392.5L4103.9,-6246.81L4138.21,-5817.17L4193.84,-5811.51L4200.13,-5741.89L4202.91,-5711.07L4113.08,-5688.84L3883.71,-5492.05L3857.02,-5534.18L3816.19,-5567.73L3838.14,-5591.13L3846.45,-5652.37L3797.01,-5703.27L3777.73,-5714.58L3756.2,-5745.59L3735.19,-5736.82L3719.18,-5756.32L3706.34,-5795.91L3704.62,-5829.46L3646.55,-5821.27L3679.5,-5525.8L3640.76,-5472.94L3576.99,-5420.09L3535.31,-5327.64L3533.33,-5208.48L3520.7,-5069.61L3534.61,-4955.13L3587.18,-4919.24L3607.85,-4912.22L3620.81,-4885.3L3655.58,-4860.34L3672.48,-4830.5L3706.77,-4816.46L3717.6,-4784.47L3820.33,-4711.33L3870.27,-4634.29L3902.42,-4533.07L3904.12,-4502.64L3922.27,-4489.77L3926.35,-4457.79L3950.56,-4425.21L3942.7,-4393.81L3957.14,-4355.39L3986.88,-4305.46L3989.56,-4260.02L4007.91,-4207.94L3816.41,-4200.73L3683.41,-4111.6L3534.47,-4066.93L3263.31,-3878.53L3026.59,-3874.62L2845.1,-3837.18Z" class="land" id="EG-SUZ" title="As Suways"/>
    <path d="M-2147.56,-1369.83L-1338.94,-1373.4L-530.04,-1373.46L279.11,-1369.99L1088.5,-1363L1097.43,-1287.72L1060.29,-1284.02L1063.96,-1197.23L1094.36,-1167.2L1106.51,-1091.73L1144.85,-1073.79L1168.47,-975.11L1208.81,-895.93L1264.22,-824.36L1289.34,-741.48L1334.8,-677.51L1387.02,-647.29L1540.33,-497.91L1621.7,-424.97L1658.99,-404.3L1737.25,-394.94L1797.69,-379.93L1898.95,-319.67L1969.08,-210.66L2044.97,-66.74L2123.92,100.18L2215.53,244.68L2239.6,316.04L2340.2,442.99L2458.39,577.73L2550.38,596.06L2627.27,655.92L2671.83,728.65L2757.62,847.6L2836.78,962.25L2972.75,1132.08L3066.77,1267.6L3181.43,1414.61L3237.99,1477L3271.51,1491.82L3336.97,1583.85L3378.15,1633.37L3464.61,1737.29L3652.54,1903.6L3712.25,1928.17L3885.59,1923.29L3935.95,1905.94L4009.35,1890.93L4075.23,1885.86L4141.71,1861.1L4180.92,1833.61L4326.91,1766.34L4391.05,1711.56L4480.96,1671.78L4574.48,1676.66L4610.01,1706.68L4660.97,1795.59L4676.71,1883.91L4634.86,1961.12L4587.2,2068.35L4573.34,2130.54L4581.36,2235.23L4560.96,2294.89L4506.86,2372.09L4418.92,2469.38L4327.13,2514.22L4268.36,2586.35L4241.13,2666.08L4244.01,2758.29L4270.23,2800.6L4319.12,2898.65L4333.84,3021.47L4365.91,3081.31L4363.83,3142.53L4387.58,3260.66L4441.28,3386.78L4489.41,3424.79L4584.98,3511.34L4676.53,3558.9L4807.29,3622.64L4911.5,3722.25L4975.56,3801.78L4994.8,3874.87L5001.45,3977.79L5010.24,4063.55L5062.73,4204.47L5089.42,4291.01L5164.77,4429.2L5153.93,4560.56L5162.3,4674.96L5148.65,4813.34L5131.52,4951.51L5140.71,5087.35L5131.44,5254.17L5139.76,5372.07L5144.13,5628.52L5019.59,5784.22L4955.76,5821.04L4910.74,5840.72L4864.01,5896.06L4879.18,6021.16L4961.14,6102.42L5018.78,6150.74L5034.05,6201.01L4961.64,6269.6L4890.7,6292L4813.74,6328.44L4734.25,6382.61L4680.53,6423.33L4634.93,6503.6L4589.53,6740.52L4585.36,6872.03L4640.43,6937.88L4831.67,6987.17L4930,7001.4L4991.38,6985.81L5066.25,6981.33L5089,7060.62L5080.91,7099.39L5035.85,7193.68L4981.28,7294.79L4934.36,7424.73L4892.41,7515.7L4838.24,7624.01L4800.63,7736.41L4778.48,7831.67L4739.63,7919.13L4710.43,7999.97L4657.45,8133.2L4600.49,8170.4L4544.16,8143.52L4470.55,8094.83L4375.44,8073.99L4280.88,8063.86L4244.43,8048.47L4048.88,8113.53L3741.28,8211.11L3661.4,8240.72L3603.37,8249.88L3528.29,8240.53L3427.58,8241.3L3386.28,8261.56L3337.56,8331.29L3311.64,8405.31L3325.41,8494.51L3336.32,8669.02L3348.94,8733.3L3335.53,8796.79L3309.18,8860.08L3244.96,8947.33L3144.23,9057.18L2998.61,9052.31L2891.43,9089.31L2739.98,9179.09L2718.31,9289.9L2778.87,9379.87L2875.66,9369.16L2909.56,9372.66L2921.7,9459.51L2908.95,9496.12L2908.48,9530.59L2872.08,9670.99L2776.07,9668.46L2410.59,9670.02L2314.06,9666.9L2082.33,9670.41L2064.66,9667.68L1390.04,9669.5L715.55,9673.33L716.25,9685.01L514.91,9674.3L169.84,9672.55L-401.04,9675.08L-410.24,9671.58L-515.16,9673.13L-1301.22,9668.46L-1450.93,9670.6L-2350.83,9668.66L-2455.3,9672.55L-2524.03,9669.04L-2886.13,9669.82L-2942.19,9667.68L-3087.75,9670.99L-3154.79,9668.46L-4277.59,9673.33L-5048.88,9669.24L-5212.95,9672.16L-6224.11,9671.27L-7235.02,9674.89L-7462.36,9685.01L-7533.57,8304.8L-7607.18,6924.25L-7683.2,5543.36L-7761.65,4162.17L-7842.55,2780.71L-7925.9,1399.01L-8011.72,17.11L-8100.03,-1364.95L-8071,-1365.15L-7130.73,-1372.19L-6190.11,-1374.48L-5249.17,-1372L-4307.94,-1364.76L-4237.59,-1364.56L-3715.25,-1368.08L-3192.8,-1370.13L-2670.23,-1370.72Z" class="land" id="EG-WAD" title="Al Wadi al Jadid"/>
  </g>
</svg>